<svg width="173" height="49" viewBox="0 0 173 49" fill="none" xmlns="http://www.w3.org/2000/svg">
<g clip-path="url(#clip0_71_697)">
<path d="M42.9668 41.4252L36.8086 11.7564C36.5765 10.2132 35.1178 8.95215 33.5596 8.95215H9.44043C7.88222 8.95215 6.42347 10.2132 6.1914 11.7564L0.0331464 41.4252C-0.198928 42.9684 0.886847 44.2295 2.44506 44.2295H5.30454C5.30454 40.6287 8.22204 37.7166 11.8109 37.7166C15.3998 37.7166 18.3173 40.637 18.3173 44.2295H24.6827C24.6827 40.6287 27.6002 37.7166 31.1891 37.7166C34.7862 37.7166 37.6954 40.637 37.6954 44.2295H40.5549C42.1131 44.2295 43.1989 42.9684 42.9668 41.4252Z" fill="url(#paint0_linear_71_697)"/>
<path d="M21.5 26.3501C16.7922 26.3501 12.0264 23.1807 12.0264 17.1159C12.0264 16.4936 12.532 15.9792 13.1619 15.9792C13.7918 15.9792 14.2974 16.4853 14.2974 17.1159C14.2974 21.9031 18.0354 24.0851 21.5082 24.0851C24.9811 24.0851 28.7191 21.9031 28.7191 17.1159C28.7191 16.4936 29.2247 15.9792 29.8546 15.9792C30.4845 15.9792 30.9901 16.4853 30.9901 17.1159C30.9736 23.1724 26.2077 26.3501 21.5 26.3501Z" fill="white"/>
<path d="M29.8381 10.3625C29.2165 10.3625 28.7026 9.85642 28.7026 9.22587C28.7026 4.43871 24.9645 2.25669 21.4917 2.25669C18.0189 2.25669 14.2808 4.43871 14.2808 9.22587C14.2808 9.84812 13.7752 10.3625 13.1453 10.3625C12.5154 10.3625 12.0098 9.85642 12.0098 9.22587C12.0264 3.16932 16.7922 0 21.5 0C26.2078 0 30.9736 3.16932 30.9736 9.23417C30.9736 9.85642 30.468 10.3625 29.8381 10.3625Z" fill="url(#paint1_linear_71_697)"/>
<path d="M15.2008 17.1159C15.2008 18.2443 14.2891 19.1652 13.1536 19.1652C12.0181 19.1652 11.1064 18.2526 11.1064 17.1159C11.1064 15.9876 12.0181 15.0667 13.1536 15.0667C14.2891 15.0667 15.2008 15.9876 15.2008 17.1159Z" fill="white"/>
<path d="M31.8853 17.1159C31.8853 18.2443 30.9736 19.1652 29.8381 19.1652C28.7026 19.1652 27.7908 18.2526 27.7908 17.1159C27.7908 15.9876 28.7026 15.0667 29.8381 15.0667C30.9736 15.0667 31.8853 15.9876 31.8853 17.1159Z" fill="white"/>
<path d="M11.8026 49.0082C14.4393 49.0082 16.5767 46.8686 16.5767 44.2293C16.5767 41.59 14.4393 39.4504 11.8026 39.4504C9.16594 39.4504 7.0285 41.59 7.0285 44.2293C7.0285 46.8686 9.16594 49.0082 11.8026 49.0082Z" fill="#231F20"/>
<path d="M35.9632 44.2293C35.9632 46.8676 33.8248 49.0082 31.1891 49.0082C28.5534 49.0082 26.415 46.8676 26.415 44.2293C26.415 41.591 28.5534 39.4504 31.1891 39.4504C33.8248 39.4504 35.9632 41.591 35.9632 44.2293Z" fill="#231F20"/>
<path d="M32.8136 44.2294C32.8136 45.1255 32.0842 45.8556 31.1891 45.8556C30.294 45.8556 29.5646 45.1255 29.5646 44.2294C29.5646 43.3334 30.294 42.6033 31.1891 42.6033C32.0925 42.6033 32.8136 43.3251 32.8136 44.2294Z" fill="white"/>
<path d="M11.8026 45.8556C12.6998 45.8556 13.4271 45.1275 13.4271 44.2294C13.4271 43.3313 12.6998 42.6033 11.8026 42.6033C10.9054 42.6033 10.1781 43.3313 10.1781 44.2294C10.1781 45.1275 10.9054 45.8556 11.8026 45.8556Z" fill="white"/>
</g>
<path d="M67.48 19.12V16.32H51.56V19.12H58.04V43H61V19.12H67.48ZM67.8606 43H70.7406V34.32C70.7406 33.12 70.8206 31.16 71.9406 29.84C72.7806 28.84 73.8606 28.56 74.8606 28.56C76.1406 28.56 77.0206 29.04 77.5806 29.76C78.2606 30.64 78.3406 31.8 78.3406 32.8V43H81.2206V32.72C81.2206 30.88 81.1006 29.52 80.2606 28.28C79.2606 26.8 77.4606 26 75.5006 26C72.7406 26 71.2606 27.64 70.7406 28.32V13.84H67.8606V43ZM98.5791 37.44C98.2191 38.24 97.6191 39.08 96.8591 39.72C95.8991 40.52 94.8191 40.92 93.4591 40.92C90.5791 40.92 88.2191 38.72 88.1791 35.28H101.099C101.179 33.08 100.579 30.52 99.5391 29.04C98.5391 27.6 96.4991 26 93.2591 26C88.2591 26 85.2191 29.84 85.2191 34.8C85.2191 40.96 89.4191 43.48 93.4191 43.48C95.5391 43.48 97.4191 42.8 98.9391 41.44C99.7791 40.68 100.499 39.68 100.979 38.76L98.5791 37.44ZM88.3791 32.88C88.8191 30.4 90.8191 28.56 93.2591 28.56C95.6991 28.56 97.6591 30.28 98.1391 32.88H88.3791Z" fill="white"/>
<path d="M105.517 43H108.397V33.96C108.397 31.96 108.757 28.56 112.037 28.56C115.077 28.56 115.037 32 115.037 33.16V43H117.917V33.76C117.917 31.76 118.277 28.56 121.597 28.56C124.317 28.56 124.557 31.04 124.557 32.92V43H127.437V32.48C127.437 30.12 126.957 26 122.037 26C120.917 26 118.637 26.16 117.037 28.68C116.717 28.12 115.517 26 112.517 26C110.757 26 109.317 26.8 108.397 28.16V26.4H105.517V43ZM145.62 28.76C144.86 27.76 143.14 26 139.94 26C135.7 26 131.86 28.96 131.86 34.68C131.86 40.52 135.74 43.48 139.94 43.48C142.86 43.48 144.66 41.92 145.62 40.68V43H148.5V26.4H145.62V28.76ZM140.26 28.56C142.82 28.56 145.78 30.44 145.78 34.72C145.78 38 143.78 40.92 140.26 40.92C136.82 40.92 134.82 38.24 134.82 34.68C134.82 30.64 137.42 28.56 140.26 28.56ZM153.954 43H156.834V34.24C156.834 31.52 157.314 30.4 157.794 29.76C158.234 29.2 158.954 28.72 160.114 28.72C160.554 28.72 161.154 28.84 161.794 29.28L163.154 26.68C162.434 26.32 161.474 26 160.594 26C158.354 26 157.114 27.76 156.834 28.2V26.4H153.954V43ZM172.412 29.04V26.4H169.532V20.4H166.652V26.4H164.892V29.04H166.652V43H169.532V29.04H172.412Z" fill="#FBB20A"/>
<defs>
<linearGradient id="paint0_linear_71_697" x1="21.5" y1="8.95215" x2="21.5" y2="44.2295" gradientUnits="userSpaceOnUse">
<stop stop-color="#FED700"/>
<stop offset="1" stop-color="#F78914"/>
</linearGradient>
<linearGradient id="paint1_linear_71_697" x1="21.4917" y1="0" x2="21.4917" y2="10.3625" gradientUnits="userSpaceOnUse">
<stop stop-color="#FED700"/>
<stop offset="1" stop-color="#F78914"/>
</linearGradient>
<clipPath id="clip0_71_697">
<rect width="43" height="49" fill="white"/>
</clipPath>
</defs>
</svg>
